<svg xmlns="http://www.w3.org/2000/svg" width="375" viewBox="0 0 375 375" height="375" version="1.0"><defs><clipPath id="a"><path d="M 120.503906 38.847656 L 254 38.847656 L 254 172 L 120.503906 172 Z M 120.503906 38.847656"/></clipPath></defs><path fill="#36A2E1" d="M 280.289062 212.488281 L 94.992188 212.488281 C 87.359375 212.488281 81.140625 206.269531 81.140625 198.636719 L 81.140625 13.339844 C 81.140625 5.707031 87.359375 -0.511719 94.992188 -0.511719 L 280.289062 -0.511719 C 287.921875 -0.511719 294.140625 5.707031 294.140625 13.339844 L 294.140625 198.636719 C 294.140625 206.269531 287.921875 212.488281 280.289062 212.488281"/><g clip-path="url(#a)"><path fill="#FFF" d="M 213.546875 73.082031 L 213.546875 45.496094 C 213.546875 45.058594 213.503906 44.625 213.417969 44.199219 C 213.335938 43.769531 213.207031 43.355469 213.042969 42.953125 C 212.875 42.550781 212.667969 42.164062 212.425781 41.804688 C 212.183594 41.441406 211.910156 41.105469 211.601562 40.796875 C 211.292969 40.488281 210.957031 40.210938 210.59375 39.96875 C 210.230469 39.726562 209.847656 39.523438 209.445312 39.355469 C 209.042969 39.1875 208.625 39.0625 208.199219 38.976562 C 207.769531 38.890625 207.335938 38.847656 206.902344 38.847656 L 127.148438 38.847656 C 126.710938 38.847656 126.28125 38.890625 125.851562 38.976562 C 125.425781 39.0625 125.007812 39.1875 124.605469 39.355469 C 124.203125 39.523438 123.820312 39.726562 123.457031 39.96875 C 123.09375 40.210938 122.757812 40.488281 122.449219 40.796875 C 122.140625 41.105469 121.863281 41.441406 121.621094 41.804688 C 121.378906 42.164062 121.175781 42.550781 121.007812 42.953125 C 120.839844 43.355469 120.714844 43.769531 120.628906 44.199219 C 120.546875 44.625 120.503906 45.058594 120.503906 45.496094 L 120.503906 125.246094 C 120.503906 125.683594 120.546875 126.117188 120.628906 126.542969 C 120.714844 126.972656 120.839844 127.386719 121.007812 127.792969 C 121.175781 128.195312 121.378906 128.578125 121.621094 128.941406 C 121.863281 129.304688 122.140625 129.640625 122.449219 129.949219 C 122.757812 130.253906 123.09375 130.53125 123.457031 130.773438 C 123.820312 131.015625 124.203125 131.222656 124.605469 131.386719 C 125.007812 131.554688 125.425781 131.679688 125.851562 131.765625 C 126.28125 131.851562 126.710938 131.894531 127.148438 131.894531 L 154.734375 131.894531 C 155.035156 133.355469 155.398438 134.800781 155.828125 136.234375 C 156.253906 137.664062 156.746094 139.070312 157.304688 140.457031 C 157.859375 141.839844 158.472656 143.199219 159.152344 144.53125 C 159.828125 145.859375 160.5625 147.15625 161.355469 148.421875 C 162.152344 149.6875 163 150.910156 163.902344 152.101562 C 164.808594 153.289062 165.761719 154.433594 166.769531 155.535156 C 167.777344 156.636719 168.828125 157.691406 169.929688 158.699219 C 171.03125 159.707031 172.175781 160.664062 173.363281 161.566406 C 174.550781 162.472656 175.777344 163.324219 177.039062 164.117188 C 178.304688 164.910156 179.601562 165.648438 180.929688 166.324219 C 182.261719 167.003906 183.617188 167.621094 185.003906 168.175781 C 186.390625 168.734375 187.796875 169.226562 189.226562 169.65625 C 190.65625 170.085938 192.101562 170.449219 193.5625 170.75 C 195.027344 171.050781 196.5 171.285156 197.980469 171.449219 C 199.464844 171.617188 200.953125 171.71875 202.445312 171.753906 C 203.9375 171.785156 205.429688 171.753906 206.917969 171.652344 C 208.40625 171.554688 209.890625 171.386719 211.363281 171.152344 C 212.839844 170.917969 214.300781 170.621094 215.746094 170.257812 C 217.195312 169.890625 218.621094 169.464844 220.03125 168.96875 C 221.441406 168.476562 222.824219 167.921875 224.183594 167.304688 C 225.542969 166.6875 226.871094 166.011719 228.167969 165.273438 C 229.46875 164.539062 230.730469 163.746094 231.957031 162.894531 C 233.183594 162.042969 234.371094 161.140625 235.515625 160.183594 C 236.664062 159.226562 237.765625 158.222656 238.820312 157.167969 C 239.875 156.109375 240.882812 155.011719 241.835938 153.863281 C 242.792969 152.71875 243.699219 151.53125 244.546875 150.304688 C 245.398438 149.078125 246.191406 147.816406 246.925781 146.515625 C 247.664062 145.21875 248.339844 143.890625 248.957031 142.53125 C 249.574219 141.171875 250.128906 139.789062 250.625 138.378906 C 251.117188 136.96875 251.546875 135.539062 251.910156 134.09375 C 252.273438 132.644531 252.574219 131.183594 252.804688 129.710938 C 253.039062 128.234375 253.207031 126.753906 253.304688 125.265625 C 253.40625 123.777344 253.441406 122.285156 253.40625 120.792969 C 253.371094 119.300781 253.273438 117.8125 253.105469 116.328125 C 252.9375 114.84375 252.703125 113.371094 252.402344 111.910156 C 252.105469 110.449219 251.738281 109.003906 251.308594 107.574219 C 250.878906 106.144531 250.386719 104.734375 249.832031 103.351562 C 249.273438 101.964844 248.65625 100.609375 247.980469 99.277344 C 247.300781 97.949219 246.566406 96.652344 245.769531 95.386719 C 244.976562 94.125 244.125 92.898438 243.222656 91.710938 C 242.316406 90.523438 241.359375 89.378906 240.351562 88.277344 C 239.347656 87.175781 238.289062 86.121094 237.1875 85.117188 C 236.085938 84.109375 234.941406 83.152344 233.753906 82.25 C 232.566406 81.347656 231.339844 80.496094 230.074219 79.703125 C 228.8125 78.910156 227.511719 78.175781 226.183594 77.496094 C 224.851562 76.820312 223.496094 76.203125 222.109375 75.648438 C 220.722656 75.09375 219.316406 74.601562 217.886719 74.175781 C 216.457031 73.746094 215.007812 73.382812 213.546875 73.082031 Z M 213.546875 73.082031"/></g><path fill="#3B3B3B" d="M 213.546875 73.078125 L 213.546875 125.246094 C 213.546875 125.683594 213.503906 126.117188 213.417969 126.542969 C 213.335938 126.972656 213.207031 127.386719 213.042969 127.792969 C 212.875 128.195312 212.667969 128.578125 212.425781 128.941406 C 212.183594 129.304688 211.910156 129.640625 211.601562 129.949219 C 211.292969 130.253906 210.957031 130.53125 210.59375 130.773438 C 210.230469 131.015625 209.847656 131.222656 209.445312 131.386719 C 209.042969 131.554688 208.625 131.679688 208.199219 131.765625 C 207.769531 131.851562 207.335938 131.894531 206.902344 131.894531 L 154.730469 131.894531 C 154.058594 128.605469 153.726562 125.28125 153.734375 121.925781 C 153.734375 120.292969 153.8125 118.664062 153.972656 117.039062 C 154.132812 115.414062 154.371094 113.800781 154.691406 112.199219 C 155.007812 110.597656 155.40625 109.019531 155.878906 107.457031 C 156.351562 105.894531 156.902344 104.359375 157.527344 102.851562 C 158.152344 101.339844 158.847656 99.867188 159.617188 98.429688 C 160.386719 96.988281 161.226562 95.589844 162.132812 94.230469 C 163.039062 92.875 164.011719 91.566406 165.046875 90.304688 C 166.082031 89.042969 167.179688 87.832031 168.332031 86.679688 C 169.488281 85.523438 170.695312 84.429688 171.957031 83.394531 C 173.21875 82.359375 174.527344 81.386719 175.886719 80.480469 C 177.242188 79.574219 178.640625 78.734375 180.082031 77.964844 C 181.519531 77.195312 182.996094 76.5 184.503906 75.875 C 186.011719 75.25 187.546875 74.699219 189.109375 74.226562 C 190.671875 73.75 192.253906 73.355469 193.855469 73.039062 C 195.453125 72.71875 197.066406 72.480469 198.691406 72.320312 C 200.316406 72.160156 201.945312 72.078125 203.578125 72.078125 C 206.933594 72.070312 210.257812 72.40625 213.546875 73.078125 Z M 213.546875 73.078125"/><g fill="#3B3B3B"><g><g><path d="M 43.597656 -61.652344 L 43.597656 -37.871094 L 20.34375 -37.871094 L 20.34375 -61.652344 L 7.046875 -61.652344 L 7.046875 0 L 20.34375 0 L 20.34375 -25.453125 L 43.597656 -25.453125 L 43.597656 0 L 56.898438 0 L 56.898438 -61.652344 Z M 43.597656 -61.652344" transform="translate(-7.077 316.762)"/></g></g></g><g fill="#3B3B3B"><g><g><path d="M 7.046875 0 L 20.34375 0 L 20.34375 -61.652344 L 7.046875 -61.652344 Z M 7.046875 0" transform="translate(56.948 316.762)"/></g></g></g><g fill="#3B3B3B"><g><g><path d="M 35.320312 1.410156 C 50.554688 1.410156 62.535156 -8.808594 65.351562 -24.042969 L 51.875 -24.042969 C 49.675781 -16.292969 43.421875 -11.363281 35.320312 -11.363281 C 24.835938 -11.363281 17 -19.640625 17 -30.738281 C 17 -41.835938 24.835938 -50.203125 35.320312 -50.203125 C 43.070312 -50.203125 49.234375 -45.625 51.789062 -38.402344 L 65.089844 -38.402344 C 62.269531 -53.023438 50.292969 -62.972656 35.320312 -62.972656 C 17.175781 -62.972656 3.433594 -49.058594 3.433594 -30.738281 C 3.433594 -12.507812 17.175781 1.410156 35.320312 1.410156 Z M 35.320312 1.410156" transform="translate(84.425 316.762)"/></g></g></g><g fill="#3B3B3B"><g><g><path d="M 28.710938 1.410156 C 43.421875 1.410156 54.429688 -9.425781 54.429688 -23.78125 C 54.429688 -38.136719 43.421875 -48.882812 28.710938 -48.882812 C 14.003906 -48.882812 2.996094 -38.136719 2.996094 -23.78125 C 2.996094 -9.425781 14.003906 1.410156 28.710938 1.410156 Z M 28.710938 -10.746094 C 21.3125 -10.746094 16.03125 -16.03125 16.03125 -23.78125 C 16.03125 -31.441406 21.3125 -36.816406 28.710938 -36.816406 C 36.109375 -36.816406 41.394531 -31.441406 41.394531 -23.78125 C 41.394531 -16.03125 36.109375 -10.746094 28.710938 -10.746094 Z M 28.710938 -10.746094" transform="translate(152.324 316.762)"/></g></g></g><g fill="#3B3B3B"><g><g><path d="M 44.917969 -47.5625 L 43.597656 -43.070312 C 39.457031 -46.679688 34.085938 -48.882812 27.921875 -48.882812 C 13.652344 -48.882812 2.996094 -38.136719 2.996094 -23.78125 C 2.996094 -9.425781 13.652344 1.410156 27.921875 1.410156 C 33.996094 1.410156 39.28125 -0.703125 43.332031 -4.316406 L 44.476562 0 L 54.519531 0 L 54.519531 -47.5625 Z M 28.976562 -10.746094 C 21.492188 -10.746094 16.03125 -16.382812 16.03125 -23.78125 C 16.03125 -31.265625 21.492188 -36.816406 28.976562 -36.816406 C 36.464844 -36.816406 41.925781 -31.265625 41.925781 -23.78125 C 41.925781 -16.292969 36.464844 -10.746094 28.976562 -10.746094 Z M 28.976562 -10.746094" transform="translate(209.832 316.762)"/></g></g></g><g fill="#3B3B3B"><g><g><path d="M 28.273438 1.410156 C 40.691406 1.410156 50.46875 -6.695312 52.667969 -18.671875 L 39.722656 -18.671875 C 37.519531 -13.5625 33.46875 -10.746094 28.273438 -10.746094 C 21.402344 -10.746094 16.03125 -16.46875 16.03125 -23.78125 C 16.03125 -31.179688 21.3125 -36.816406 28.273438 -36.816406 C 33.378906 -36.816406 37.695312 -33.996094 39.722656 -29.328125 L 52.492188 -29.328125 C 50.203125 -41.042969 40.691406 -48.882812 28.359375 -48.882812 C 13.914062 -48.882812 2.996094 -38.136719 2.996094 -23.867188 C 2.996094 -9.601562 13.914062 1.410156 28.273438 1.410156 Z M 28.273438 1.410156" transform="translate(270.598 316.762)"/></g></g></g><g fill="#3B3B3B"><g><g><path d="M 33.378906 -48.617188 C 27.65625 -48.617188 22.636719 -46.503906 19.023438 -43.070312 L 19.023438 -64.648438 L 6.164062 -64.648438 L 6.164062 0 L 19.023438 0 L 19.023438 -24.925781 C 19.023438 -32.675781 23.253906 -37.34375 29.679688 -37.34375 C 35.40625 -37.34375 37.960938 -33.820312 37.960938 -26.6875 L 37.960938 0 L 50.820312 0 L 50.820312 -28.890625 C 50.820312 -40.957031 44.125 -48.617188 33.378906 -48.617188 Z M 33.378906 -48.617188" transform="translate(325.64 316.762)"/></g></g></g></svg>